<?xml version="1.0" standalone="no"?>
<!DOCTYPE svg PUBLIC "-//W3C//DTD SVG 20010904//EN"
 "http://www.w3.org/TR/2001/REC-SVG-20010904/DTD/svg10.dtd">
<svg version="1.0" xmlns="http://www.w3.org/2000/svg"
 width="700.000000pt" height="700.000000pt" viewBox="0 0 700.000000 700.000000"
 preserveAspectRatio="xMidYMid meet">
<metadata>
Created by potrace 1.14, written by Peter Selinger 2001-2017
</metadata>
<g transform="translate(0.000000,700.000000) scale(0.100000,-0.100000)"
fill="#000000" stroke="none">
<path d="M29 6968 c-9 -18 -12 -6928 -3 -6953 5 -13 405 -15 3490 -15 l3484 0
0 3485 c0 3090 -2 3485 -15 3487 -59 6 -249 7 -1265 7 -1140 0 -1481 1 -1510
2 -8 0 -683 0 -1500 0 -817 -1 -1752 0 -2078 1 -544 3 -595 2 -603 -14z m2981
-2152 c0 -2 -7 -9 -15 -16 -12 -10 -15 -10 -15 4 0 9 7 16 15 16 8 0 15 -2 15
-4z"/>
</g>
</svg>
